<mxfile host="65bd71144e">
    <diagram id="3R2ssMERMjK36f9opJ1k" name="Page-1">
        <mxGraphModel dx="3733" dy="6431" grid="0" gridSize="10" guides="1" tooltips="1" connect="1" arrows="1" fold="1" page="0" pageScale="1" pageWidth="1600" pageHeight="900" background="#999999" math="0" shadow="0">
            <root>
                <mxCell id="0"/>
                <mxCell id="1" parent="0"/>
                <mxCell id="70" value="modifier catégorie" style="rounded=1;fillColor=#FF3333;shadow=0;fontStyle=1;fontSize=15;labelBackgroundColor=none;labelBorderColor=none;whiteSpace=wrap;html=1;spacingTop=0;" vertex="1" parent="1">
                    <mxGeometry x="-210" y="-4350" width="120" height="60" as="geometry"/>
                </mxCell>
                <mxCell id="84" value="voir toute les livraisons" style="rounded=1;fillColor=#FF3333;shadow=0;fontStyle=1;fontSize=15;labelBackgroundColor=none;labelBorderColor=none;whiteSpace=wrap;html=1;spacingTop=0;" vertex="1" parent="1">
                    <mxGeometry x="750" y="-4350" width="120" height="60" as="geometry"/>
                </mxCell>
                <mxCell id="85" value="supprime toute livraison" style="rounded=1;fillColor=#FF3333;shadow=0;fontStyle=1;fontSize=15;labelBackgroundColor=none;labelBorderColor=none;whiteSpace=wrap;html=1;spacingTop=0;" vertex="1" parent="1">
                    <mxGeometry x="750" y="-4280" width="120" height="60" as="geometry"/>
                </mxCell>
                <mxCell id="86" value="modifie toute livraison" style="rounded=1;fillColor=#FF3333;shadow=0;fontStyle=1;fontSize=15;labelBackgroundColor=none;labelBorderColor=none;whiteSpace=wrap;html=1;spacingTop=0;" vertex="1" parent="1">
                    <mxGeometry x="750" y="-4210" width="120" height="60" as="geometry"/>
                </mxCell>
                <mxCell id="98" value="ajouter catégorie" style="rounded=1;fillColor=#990000;shadow=0;fontStyle=1;fontSize=15;labelBackgroundColor=none;labelBorderColor=none;whiteSpace=wrap;html=1;spacingTop=0;" vertex="1" parent="1">
                    <mxGeometry x="-210" y="-4420" width="120" height="60" as="geometry"/>
                </mxCell>
                <mxCell id="2" value="&lt;font style=&quot;font-size: 15px;&quot;&gt;accueil&lt;/font&gt;" style="rounded=1;whiteSpace=wrap;html=1;fillColor=#B3B3B3;fontSize=15;fontStyle=1" vertex="1" parent="1">
                    <mxGeometry x="80" y="-4980" width="120" height="60" as="geometry"/>
                </mxCell>
                <mxCell id="7" value="commande" style="rounded=1;fillColor=#004C99;fontStyle=1;fontSize=15;labelBackgroundColor=none;labelBorderColor=none;whiteSpace=wrap;html=1;spacingTop=0;" vertex="1" parent="1">
                    <mxGeometry x="440" y="-4580" width="120" height="60" as="geometry"/>
                </mxCell>
                <mxCell id="8" value="profil" style="rounded=1;fillColor=#808080;fontStyle=1;fontSize=15;labelBackgroundColor=none;labelBorderColor=none;whiteSpace=wrap;html=1;spacingTop=0;" vertex="1" parent="1">
                    <mxGeometry x="-40" y="-4580" width="120" height="60" as="geometry"/>
                </mxCell>
                <mxCell id="9" value="livraison" style="rounded=1;fillColor=#004C99;fontStyle=1;fontSize=15;labelBackgroundColor=none;labelBorderColor=none;whiteSpace=wrap;html=1;spacingTop=0;" vertex="1" parent="1">
                    <mxGeometry x="680" y="-4580" width="120" height="60" as="geometry"/>
                </mxCell>
                <mxCell id="10" value="produit" style="rounded=1;fillColor=#004C99;fontStyle=1;fontSize=15;labelBackgroundColor=none;labelBorderColor=none;whiteSpace=wrap;html=1;spacingTop=0;" vertex="1" parent="1">
                    <mxGeometry x="200" y="-4580" width="120" height="60" as="geometry"/>
                </mxCell>
                <mxCell id="11" value="catégorie" style="rounded=1;fillColor=#808080;fontStyle=1;fontSize=15;labelBackgroundColor=none;labelBorderColor=none;whiteSpace=wrap;html=1;spacingTop=0;" vertex="1" parent="1">
                    <mxGeometry x="-280" y="-4580" width="120" height="60" as="geometry"/>
                </mxCell>
                <mxCell id="12" value="&lt;font style=&quot;font-size: 15px;&quot;&gt;auth&lt;/font&gt;" style="rounded=1;whiteSpace=wrap;html=1;fillColor=#808080;fontSize=15;fontStyle=1" vertex="1" parent="1">
                    <mxGeometry x="270" y="-4910" width="120" height="60" as="geometry"/>
                </mxCell>
                <mxCell id="13" value="role" style="rounded=1;fillColor=#004C99;fontStyle=1;fontSize=15;labelBackgroundColor=none;labelBorderColor=none;whiteSpace=wrap;html=1;spacingTop=0;" vertex="1" parent="1">
                    <mxGeometry x="-520" y="-4580" width="120" height="60" as="geometry"/>
                </mxCell>
                <mxCell id="32" value="&lt;font style=&quot;font-size: 15px&quot;&gt;login&lt;/font&gt;" style="rounded=1;whiteSpace=wrap;html=1;fillColor=#CCCC00;fontSize=15;fontStyle=1" vertex="1" parent="1">
                    <mxGeometry x="340" y="-4760" width="120" height="60" as="geometry"/>
                </mxCell>
                <mxCell id="33" value="&lt;font style=&quot;font-size: 15px&quot;&gt;register client&lt;/font&gt;" style="rounded=1;whiteSpace=wrap;html=1;fillColor=#009900;fontSize=15;fontStyle=1" vertex="1" parent="1">
                    <mxGeometry x="340" y="-4830" width="120" height="60" as="geometry"/>
                </mxCell>
                <mxCell id="35" value="" style="endArrow=none;html=1;fontSize=15;strokeColor=#000000;entryX=0.25;entryY=1;entryDx=0;entryDy=0;fillColor=#808080;fontStyle=1;exitX=0;exitY=0.5;exitDx=0;exitDy=0;strokeWidth=3;" edge="1" parent="1" source="33" target="12">
                    <mxGeometry width="50" height="50" relative="1" as="geometry">
                        <mxPoint x="270" y="-4800" as="sourcePoint"/>
                        <mxPoint x="440" y="-4770" as="targetPoint"/>
                        <Array as="points">
                            <mxPoint x="300" y="-4800"/>
                        </Array>
                    </mxGeometry>
                </mxCell>
                <mxCell id="42" value="&lt;font style=&quot;font-size: 15px;&quot;&gt;entrepreneur&lt;/font&gt;" style="rounded=1;whiteSpace=wrap;html=1;fillColor=#CC6600;fontSize=15;fontStyle=1" vertex="1" parent="1">
                    <mxGeometry x="-365" y="-4760" width="120" height="60" as="geometry"/>
                </mxCell>
                <mxCell id="43" value="&lt;font style=&quot;font-size: 15px;&quot;&gt;utilisateur&lt;/font&gt;" style="rounded=1;whiteSpace=wrap;html=1;fillColor=#6600CC;fontSize=15;fontStyle=1" vertex="1" parent="1">
                    <mxGeometry x="-125" y="-4820" width="120" height="60" as="geometry"/>
                </mxCell>
                <mxCell id="50" value="" style="endArrow=none;html=1;fontSize=20;strokeColor=#000000;fillColor=#808080;exitX=0.5;exitY=1;exitDx=0;exitDy=0;strokeWidth=3;" edge="1" parent="1" source="2">
                    <mxGeometry width="50" height="50" relative="1" as="geometry">
                        <mxPoint x="140" y="-4710" as="sourcePoint"/>
                        <mxPoint x="140" y="-4610" as="targetPoint"/>
                        <Array as="points"/>
                    </mxGeometry>
                </mxCell>
                <mxCell id="53" value="&lt;font style=&quot;font-size: 15px;&quot;&gt;libre&lt;/font&gt;" style="rounded=1;whiteSpace=wrap;html=1;fillColor=#009900;fontSize=15;fontStyle=1" vertex="1" parent="1">
                    <mxGeometry x="-245" y="-4820" width="120" height="60" as="geometry"/>
                </mxCell>
                <mxCell id="65" value="" style="endArrow=none;html=1;fontSize=15;strokeColor=#000000;fillColor=#808080;entryX=0;entryY=0.5;entryDx=0;entryDy=0;fontStyle=1;strokeWidth=3;" edge="1" parent="1" target="12">
                    <mxGeometry width="50" height="50" relative="1" as="geometry">
                        <mxPoint x="140" y="-4920" as="sourcePoint"/>
                        <mxPoint x="200" y="-4780" as="targetPoint"/>
                        <Array as="points">
                            <mxPoint x="140" y="-4880"/>
                        </Array>
                    </mxGeometry>
                </mxCell>
                <mxCell id="67" value="apercu catégorie" style="rounded=1;fillColor=#4C0099;shadow=0;fontStyle=1;fontSize=15;labelBackgroundColor=none;labelBorderColor=none;whiteSpace=wrap;html=1;spacingTop=0;" vertex="1" parent="1">
                    <mxGeometry x="-210" y="-4490" width="120" height="60" as="geometry"/>
                </mxCell>
                <mxCell id="68" value="ajouter catégorie" style="rounded=1;fillColor=#FF3333;shadow=0;fontStyle=1;fontSize=15;labelBackgroundColor=none;labelBorderColor=none;whiteSpace=wrap;html=1;spacingTop=0;" vertex="1" parent="1">
                    <mxGeometry x="-210" y="-4420" width="120" height="60" as="geometry"/>
                </mxCell>
                <mxCell id="69" value="supprimer catégorie" style="rounded=1;fillColor=#660000;shadow=0;fontStyle=1;fontSize=15;labelBackgroundColor=none;labelBorderColor=none;whiteSpace=wrap;html=1;spacingTop=0;" vertex="1" parent="1">
                    <mxGeometry x="-210" y="-4280" width="120" height="60" as="geometry"/>
                </mxCell>
                <mxCell id="71" value="apercu de son profil" style="rounded=1;fillColor=#CCCC00;shadow=0;fontStyle=1;fontSize=15;labelBackgroundColor=none;labelBorderColor=none;whiteSpace=wrap;html=1;spacingTop=0;" vertex="1" parent="1">
                    <mxGeometry x="30" y="-4490" width="120" height="60" as="geometry"/>
                </mxCell>
                <mxCell id="72" value="modifier son profil" style="rounded=1;fillColor=#CCCC00;shadow=0;fontStyle=1;fontSize=15;labelBackgroundColor=none;labelBorderColor=none;whiteSpace=wrap;html=1;spacingTop=0;" vertex="1" parent="1">
                    <mxGeometry x="30" y="-4420" width="120" height="60" as="geometry"/>
                </mxCell>
                <mxCell id="73" value="supprimer son profil" style="rounded=1;fillColor=#CCCC00;shadow=0;fontStyle=1;fontSize=15;labelBackgroundColor=none;labelBorderColor=none;whiteSpace=wrap;html=1;spacingTop=0;" vertex="1" parent="1">
                    <mxGeometry x="30" y="-4350" width="120" height="60" as="geometry"/>
                </mxCell>
                <mxCell id="75" value="ajoute sa commande" style="rounded=1;fillColor=#CCCC00;shadow=0;fontStyle=1;fontSize=15;labelBackgroundColor=none;labelBorderColor=none;whiteSpace=wrap;html=1;spacingTop=0;" vertex="1" parent="1">
                    <mxGeometry x="510" y="-4420" width="120" height="60" as="geometry"/>
                </mxCell>
                <mxCell id="76" value="modifie sa commande" style="rounded=1;fillColor=#CCCC00;shadow=0;fontStyle=1;fontSize=15;labelBackgroundColor=none;labelBorderColor=none;whiteSpace=wrap;html=1;spacingTop=0;" vertex="1" parent="1">
                    <mxGeometry x="510" y="-4350" width="120" height="60" as="geometry"/>
                </mxCell>
                <mxCell id="77" value="supprime sa commande" style="rounded=1;fillColor=#CCCC00;shadow=0;fontStyle=1;fontSize=15;labelBackgroundColor=none;labelBorderColor=none;whiteSpace=wrap;html=1;spacingTop=0;" vertex="1" parent="1">
                    <mxGeometry x="510" y="-4280" width="120" height="60" as="geometry"/>
                </mxCell>
                <mxCell id="78" value="confirme toute commande" style="rounded=1;fillColor=#660000;shadow=0;fontStyle=1;fontSize=15;labelBackgroundColor=none;labelBorderColor=none;whiteSpace=wrap;html=1;spacingTop=0;" vertex="1" parent="1">
                    <mxGeometry x="510" y="-4070" width="120" height="60" as="geometry"/>
                </mxCell>
                <mxCell id="79" value="voir tout les profils" style="rounded=1;fillColor=#FF8000;shadow=0;fontStyle=1;fontSize=15;labelBackgroundColor=none;labelBorderColor=none;whiteSpace=wrap;html=1;spacingTop=0;" vertex="1" parent="1">
                    <mxGeometry x="30" y="-4210" width="120" height="60" as="geometry"/>
                </mxCell>
                <mxCell id="87" value="&lt;font style=&quot;font-size: 15px;&quot;&gt;utilisateur&lt;/font&gt;" style="rounded=1;whiteSpace=wrap;html=1;fillColor=#CCCC00;fontSize=15;fontStyle=1" vertex="1" parent="1">
                    <mxGeometry x="-125" y="-4820" width="120" height="60" as="geometry"/>
                </mxCell>
                <mxCell id="88" value="apercu catégorie" style="rounded=1;fillColor=#CCCC00;shadow=0;fontStyle=1;fontSize=15;labelBackgroundColor=none;labelBorderColor=none;whiteSpace=wrap;html=1;spacingTop=0;" vertex="1" parent="1">
                    <mxGeometry x="-210" y="-4490" width="120" height="60" as="geometry"/>
                </mxCell>
                <mxCell id="89" value="&lt;font style=&quot;font-size: 15px;&quot;&gt;libre&lt;/font&gt;" style="rounded=1;whiteSpace=wrap;html=1;fillColor=#B3B3B3;fontSize=15;fontStyle=1" vertex="1" parent="1">
                    <mxGeometry x="-245" y="-4820" width="120" height="60" as="geometry"/>
                </mxCell>
                <mxCell id="90" value="&lt;font style=&quot;font-size: 15px;&quot;&gt;auth&lt;/font&gt;" style="rounded=1;whiteSpace=wrap;html=1;fillColor=#004C99;fontSize=15;fontStyle=1" vertex="1" parent="1">
                    <mxGeometry x="270" y="-4910" width="120" height="60" as="geometry"/>
                </mxCell>
                <mxCell id="91" value="catégorie" style="rounded=1;fillColor=#004C99;fontStyle=1;fontSize=15;labelBackgroundColor=none;labelBorderColor=none;whiteSpace=wrap;html=1;spacingTop=0;" vertex="1" parent="1">
                    <mxGeometry x="-280" y="-4580" width="120" height="60" as="geometry"/>
                </mxCell>
                <mxCell id="92" value="profil" style="rounded=1;fillColor=#004C99;fontStyle=1;fontSize=15;labelBackgroundColor=none;labelBorderColor=none;whiteSpace=wrap;html=1;spacingTop=0;" vertex="1" parent="1">
                    <mxGeometry x="-40" y="-4580" width="120" height="60" as="geometry"/>
                </mxCell>
                <mxCell id="93" value="&lt;font style=&quot;font-size: 15px;&quot;&gt;libre&lt;/font&gt;" style="rounded=1;whiteSpace=wrap;html=1;fillColor=#009900;fontSize=15;fontStyle=1" vertex="1" parent="1">
                    <mxGeometry x="-245" y="-4820" width="120" height="60" as="geometry"/>
                </mxCell>
                <mxCell id="94" value="&lt;font style=&quot;font-size: 15px;&quot;&gt;accueil&lt;/font&gt;" style="rounded=1;whiteSpace=wrap;html=1;fillColor=#009900;fontSize=15;fontStyle=1" vertex="1" parent="1">
                    <mxGeometry x="80" y="-4980" width="120" height="60" as="geometry"/>
                </mxCell>
                <mxCell id="95" value="&lt;font style=&quot;font-size: 15px;&quot;&gt;modérateur&lt;/font&gt;" style="rounded=1;whiteSpace=wrap;html=1;fillColor=#FF3333;fontSize=15;fontStyle=1" vertex="1" parent="1">
                    <mxGeometry x="-245" y="-4760" width="120" height="60" as="geometry"/>
                </mxCell>
                <mxCell id="96" value="voir tout les profils" style="rounded=1;fillColor=#FF3333;shadow=0;fontStyle=1;fontSize=15;labelBackgroundColor=none;labelBorderColor=none;whiteSpace=wrap;html=1;spacingTop=0;" vertex="1" parent="1">
                    <mxGeometry x="30" y="-4210" width="120" height="60" as="geometry"/>
                </mxCell>
                <mxCell id="97" value="&lt;font style=&quot;font-size: 15px;&quot;&gt;admin&lt;/font&gt;" style="rounded=1;whiteSpace=wrap;html=1;fillColor=#660000;fontSize=15;fontStyle=1" vertex="1" parent="1">
                    <mxGeometry x="-125" y="-4760" width="120" height="60" as="geometry"/>
                </mxCell>
                <mxCell id="100" value="&lt;font style=&quot;font-size: 15px&quot;&gt;catégorie&lt;/font&gt;" style="rounded=1;whiteSpace=wrap;html=1;fillColor=#004C99;fontSize=15;fontStyle=1" vertex="1" parent="1">
                    <mxGeometry x="-365" y="-4820" width="120" height="60" as="geometry"/>
                </mxCell>
                <mxCell id="101" value="ajoute son produit" style="rounded=1;fillColor=#CC6600;shadow=0;fontStyle=1;fontSize=15;labelBackgroundColor=none;labelBorderColor=none;whiteSpace=wrap;html=1;spacingTop=0;" vertex="1" parent="1">
                    <mxGeometry x="270" y="-4420" width="120" height="60" as="geometry"/>
                </mxCell>
                <mxCell id="102" value="modifie son produit" style="rounded=1;fillColor=#CC6600;shadow=0;fontStyle=1;fontSize=15;labelBackgroundColor=none;labelBorderColor=none;whiteSpace=wrap;html=1;spacingTop=0;" vertex="1" parent="1">
                    <mxGeometry x="270" y="-4350" width="120" height="60" as="geometry"/>
                </mxCell>
                <mxCell id="103" value="supprime son produit" style="rounded=1;fillColor=#CC6600;shadow=0;fontStyle=1;fontSize=15;labelBackgroundColor=none;labelBorderColor=none;whiteSpace=wrap;html=1;spacingTop=0;" vertex="1" parent="1">
                    <mxGeometry x="270" y="-4280" width="120" height="60" as="geometry"/>
                </mxCell>
                <mxCell id="104" value="confirme tout produit" style="rounded=1;fillColor=#660000;shadow=0;fontStyle=1;fontSize=15;labelBackgroundColor=none;labelBorderColor=none;whiteSpace=wrap;html=1;spacingTop=0;" vertex="1" parent="1">
                    <mxGeometry x="270" y="-4210" width="120" height="60" as="geometry"/>
                </mxCell>
                <mxCell id="105" value="modifier tout les profil" style="rounded=1;fillColor=#FF3333;shadow=0;fontStyle=1;fontSize=15;labelBackgroundColor=none;labelBorderColor=none;whiteSpace=wrap;html=1;spacingTop=0;" vertex="1" parent="1">
                    <mxGeometry x="30" y="-4140" width="120" height="60" as="geometry"/>
                </mxCell>
                <mxCell id="106" value="supprimer tout profil" style="rounded=1;fillColor=#660000;shadow=0;fontStyle=1;fontSize=15;labelBackgroundColor=none;labelBorderColor=none;whiteSpace=wrap;html=1;spacingTop=0;" vertex="1" parent="1">
                    <mxGeometry x="30" y="-4070" width="120" height="60" as="geometry"/>
                </mxCell>
                <mxCell id="107" value="modifie toutes commande" style="rounded=1;fillColor=#FF3333;shadow=0;fontStyle=1;fontSize=15;labelBackgroundColor=none;labelBorderColor=none;whiteSpace=wrap;html=1;spacingTop=0;" vertex="1" parent="1">
                    <mxGeometry x="510" y="-4140" width="120" height="60" as="geometry"/>
                </mxCell>
                <mxCell id="108" value="supprime toutes commande" style="rounded=1;fillColor=#660000;shadow=0;fontStyle=1;fontSize=15;labelBackgroundColor=none;labelBorderColor=none;whiteSpace=wrap;html=1;spacingTop=0;" vertex="1" parent="1">
                    <mxGeometry x="510" y="-4000" width="120" height="60" as="geometry"/>
                </mxCell>
                <mxCell id="109" value="mise a jour du password" style="rounded=1;fillColor=#CCCC00;shadow=0;fontStyle=1;fontSize=15;labelBackgroundColor=none;labelBorderColor=none;whiteSpace=wrap;html=1;spacingTop=0;" vertex="1" parent="1">
                    <mxGeometry x="30" y="-4280" width="120" height="60" as="geometry"/>
                </mxCell>
                <mxCell id="110" value="apercu de sa commande" style="rounded=1;fillColor=#CCCC00;shadow=0;fontStyle=1;fontSize=15;labelBackgroundColor=none;labelBorderColor=none;whiteSpace=wrap;html=1;spacingTop=0;" vertex="1" parent="1">
                    <mxGeometry x="510" y="-4490" width="120" height="60" as="geometry"/>
                </mxCell>
                <mxCell id="111" value="apercu toutes commandes" style="rounded=1;fillColor=#FF3333;shadow=0;fontStyle=1;fontSize=15;labelBackgroundColor=none;labelBorderColor=none;whiteSpace=wrap;html=1;spacingTop=0;" vertex="1" parent="1">
                    <mxGeometry x="510" y="-4210" width="120" height="60" as="geometry"/>
                </mxCell>
                <mxCell id="113" value="voir ses livraisons" style="rounded=1;fillColor=#CCCC00;shadow=0;fontStyle=1;fontSize=15;labelBackgroundColor=none;labelBorderColor=none;whiteSpace=wrap;html=1;spacingTop=0;" vertex="1" parent="1">
                    <mxGeometry x="750" y="-4490" width="120" height="60" as="geometry"/>
                </mxCell>
                <mxCell id="115" value="modifier ses livraison" style="rounded=1;fillColor=#CCCC00;shadow=0;fontStyle=1;fontSize=15;labelBackgroundColor=none;labelBorderColor=none;whiteSpace=wrap;html=1;spacingTop=0;" vertex="1" parent="1">
                    <mxGeometry x="750" y="-4420" width="120" height="60" as="geometry"/>
                </mxCell>
                <mxCell id="116" value="&lt;font style=&quot;font-size: 15px&quot;&gt;register entrepreneur&lt;/font&gt;" style="rounded=1;whiteSpace=wrap;html=1;fillColor=#CCCC00;fontSize=15;fontStyle=1" vertex="1" parent="1">
                    <mxGeometry x="340" y="-4690" width="120" height="60" as="geometry"/>
                </mxCell>
                <mxCell id="117" value="" style="endArrow=none;html=1;labelBackgroundColor=none;labelBorderColor=none;fontSize=15;strokeColor=#000000;fillColor=#808080;entryX=0;entryY=0.5;entryDx=0;entryDy=0;strokeWidth=3;exitX=0.25;exitY=1;exitDx=0;exitDy=0;" edge="1" parent="1" source="90" target="116">
                    <mxGeometry width="50" height="50" relative="1" as="geometry">
                        <mxPoint x="330" y="-4780" as="sourcePoint"/>
                        <mxPoint x="330" y="-4760" as="targetPoint"/>
                        <Array as="points">
                            <mxPoint x="300" y="-4660"/>
                            <mxPoint x="330" y="-4660"/>
                        </Array>
                    </mxGeometry>
                </mxCell>
                <mxCell id="118" value="" style="endArrow=none;html=1;labelBackgroundColor=none;labelBorderColor=none;fontSize=15;strokeColor=#000000;fillColor=#808080;entryX=0;entryY=0.5;entryDx=0;entryDy=0;exitX=0.25;exitY=1;exitDx=0;exitDy=0;strokeWidth=3;" edge="1" parent="1" source="90" target="32">
                    <mxGeometry width="50" height="50" relative="1" as="geometry">
                        <mxPoint x="300" y="-4750" as="sourcePoint"/>
                        <mxPoint x="300" y="-4750" as="targetPoint"/>
                        <Array as="points">
                            <mxPoint x="300" y="-4730"/>
                        </Array>
                    </mxGeometry>
                </mxCell>
                <mxCell id="119" value="ajoute un role" style="rounded=1;fillColor=#660000;shadow=0;fontStyle=1;fontSize=15;labelBackgroundColor=none;labelBorderColor=none;whiteSpace=wrap;html=1;spacingTop=0;" vertex="1" parent="1">
                    <mxGeometry x="-460" y="-4420" width="120" height="60" as="geometry"/>
                </mxCell>
                <mxCell id="120" value="modifie un role" style="rounded=1;fillColor=#660000;shadow=0;fontStyle=1;fontSize=15;labelBackgroundColor=none;labelBorderColor=none;whiteSpace=wrap;html=1;spacingTop=0;" vertex="1" parent="1">
                    <mxGeometry x="-460" y="-4350" width="120" height="60" as="geometry"/>
                </mxCell>
                <mxCell id="121" value="supprime un role" style="rounded=1;fillColor=#660000;shadow=0;fontStyle=1;fontSize=15;labelBackgroundColor=none;labelBorderColor=none;whiteSpace=wrap;html=1;spacingTop=0;" vertex="1" parent="1">
                    <mxGeometry x="-460" y="-4280" width="120" height="60" as="geometry"/>
                </mxCell>
                <mxCell id="122" value="apercu de tout les roles" style="rounded=1;fillColor=#FF3333;shadow=0;fontStyle=1;fontSize=15;labelBackgroundColor=none;labelBorderColor=none;whiteSpace=wrap;html=1;spacingTop=0;" vertex="1" parent="1">
                    <mxGeometry x="-460" y="-4490" width="120" height="60" as="geometry"/>
                </mxCell>
                <mxCell id="123" value="apercu de tout les produits" style="rounded=1;fillColor=#CCCC00;shadow=0;fontStyle=1;fontSize=15;labelBackgroundColor=none;labelBorderColor=none;whiteSpace=wrap;html=1;spacingTop=0;" vertex="1" parent="1">
                    <mxGeometry x="270" y="-4490" width="120" height="60" as="geometry"/>
                </mxCell>
                <mxCell id="125" value="" style="endArrow=none;html=1;labelBackgroundColor=none;labelBorderColor=none;fontSize=15;fontColor=#000000;strokeColor=#000000;strokeWidth=3;fillColor=#808080;exitX=0.5;exitY=0;exitDx=0;exitDy=0;" edge="1" parent="1" source="91">
                    <mxGeometry width="50" height="50" relative="1" as="geometry">
                        <mxPoint x="-130" y="-4550" as="sourcePoint"/>
                        <mxPoint x="140" y="-4680" as="targetPoint"/>
                        <Array as="points">
                            <mxPoint x="-220" y="-4600"/>
                            <mxPoint x="140" y="-4600"/>
                        </Array>
                    </mxGeometry>
                </mxCell>
                <mxCell id="126" value="" style="endArrow=none;html=1;labelBackgroundColor=none;labelBorderColor=none;fontSize=15;fontColor=#000000;strokeColor=#000000;strokeWidth=3;fillColor=#808080;exitX=0.5;exitY=0;exitDx=0;exitDy=0;" edge="1" parent="1" source="92">
                    <mxGeometry width="50" height="50" relative="1" as="geometry">
                        <mxPoint x="90" y="-4590" as="sourcePoint"/>
                        <mxPoint x="110" y="-4600" as="targetPoint"/>
                        <Array as="points">
                            <mxPoint x="20" y="-4600"/>
                        </Array>
                    </mxGeometry>
                </mxCell>
                <mxCell id="127" value="" style="endArrow=none;html=1;labelBackgroundColor=none;labelBorderColor=none;fontSize=15;fontColor=#000000;strokeColor=#000000;strokeWidth=3;fillColor=#808080;entryX=0.5;entryY=0;entryDx=0;entryDy=0;" edge="1" parent="1" target="10">
                    <mxGeometry width="50" height="50" relative="1" as="geometry">
                        <mxPoint x="140" y="-4620" as="sourcePoint"/>
                        <mxPoint x="190" y="-4640" as="targetPoint"/>
                        <Array as="points">
                            <mxPoint x="140" y="-4600"/>
                            <mxPoint x="260" y="-4600"/>
                        </Array>
                    </mxGeometry>
                </mxCell>
                <mxCell id="128" value="" style="endArrow=none;html=1;labelBackgroundColor=none;labelBorderColor=none;fontSize=15;fontColor=#000000;strokeColor=#000000;strokeWidth=3;fillColor=#808080;entryX=0.558;entryY=0.016;entryDx=0;entryDy=0;entryPerimeter=0;" edge="1" parent="1" target="7">
                    <mxGeometry width="50" height="50" relative="1" as="geometry">
                        <mxPoint x="230" y="-4600" as="sourcePoint"/>
                        <mxPoint x="420" y="-4620" as="targetPoint"/>
                        <Array as="points">
                            <mxPoint x="507" y="-4600"/>
                        </Array>
                    </mxGeometry>
                </mxCell>
                <mxCell id="129" value="" style="endArrow=none;html=1;labelBackgroundColor=none;labelBorderColor=none;fontSize=15;fontColor=#000000;strokeColor=#000000;strokeWidth=3;fillColor=#808080;entryX=0.5;entryY=0;entryDx=0;entryDy=0;" edge="1" parent="1" target="9">
                    <mxGeometry width="50" height="50" relative="1" as="geometry">
                        <mxPoint x="480" y="-4600" as="sourcePoint"/>
                        <mxPoint x="650" y="-4600" as="targetPoint"/>
                        <Array as="points">
                            <mxPoint x="740" y="-4600"/>
                        </Array>
                    </mxGeometry>
                </mxCell>
                <mxCell id="130" value="" style="endArrow=none;html=1;labelBackgroundColor=none;labelBorderColor=none;fontSize=15;fontColor=#000000;strokeColor=#000000;strokeWidth=3;fillColor=#808080;exitX=0.5;exitY=0;exitDx=0;exitDy=0;" edge="1" parent="1" source="13">
                    <mxGeometry width="50" height="50" relative="1" as="geometry">
                        <mxPoint x="-380" y="-4470" as="sourcePoint"/>
                        <mxPoint x="-200" y="-4600" as="targetPoint"/>
                        <Array as="points">
                            <mxPoint x="-460" y="-4600"/>
                        </Array>
                    </mxGeometry>
                </mxCell>
                <mxCell id="132" value="" style="endArrow=none;html=1;labelBackgroundColor=none;labelBorderColor=none;fontSize=15;fontColor=#000000;strokeColor=#000000;strokeWidth=3;fillColor=#808080;entryX=0;entryY=0.5;entryDx=0;entryDy=0;exitX=0.25;exitY=1;exitDx=0;exitDy=0;" edge="1" parent="1" source="13" target="122">
                    <mxGeometry width="50" height="50" relative="1" as="geometry">
                        <mxPoint x="-470" y="-4410" as="sourcePoint"/>
                        <mxPoint x="-420" y="-4460" as="targetPoint"/>
                        <Array as="points">
                            <mxPoint x="-490" y="-4460"/>
                        </Array>
                    </mxGeometry>
                </mxCell>
                <mxCell id="133" value="" style="endArrow=none;html=1;labelBackgroundColor=none;labelBorderColor=none;fontSize=15;fontColor=#000000;strokeColor=#000000;strokeWidth=3;fillColor=#808080;entryX=0;entryY=0.5;entryDx=0;entryDy=0;exitX=0.25;exitY=1;exitDx=0;exitDy=0;" edge="1" parent="1" source="13" target="119">
                    <mxGeometry width="50" height="50" relative="1" as="geometry">
                        <mxPoint x="-490" y="-4490" as="sourcePoint"/>
                        <mxPoint x="-420" y="-4410" as="targetPoint"/>
                        <Array as="points">
                            <mxPoint x="-490" y="-4390"/>
                        </Array>
                    </mxGeometry>
                </mxCell>
                <mxCell id="134" value="" style="endArrow=none;html=1;labelBackgroundColor=none;labelBorderColor=none;fontSize=15;fontColor=#000000;strokeColor=#000000;strokeWidth=3;fillColor=#808080;exitX=0;exitY=0.5;exitDx=0;exitDy=0;entryX=0.25;entryY=1;entryDx=0;entryDy=0;" edge="1" parent="1" source="120" target="13">
                    <mxGeometry width="50" height="50" relative="1" as="geometry">
                        <mxPoint x="-440" y="-4300" as="sourcePoint"/>
                        <mxPoint x="-490" y="-4430" as="targetPoint"/>
                        <Array as="points">
                            <mxPoint x="-490" y="-4320"/>
                        </Array>
                    </mxGeometry>
                </mxCell>
                <mxCell id="135" value="" style="endArrow=none;html=1;labelBackgroundColor=none;labelBorderColor=none;fontSize=15;fontColor=#000000;strokeColor=#000000;strokeWidth=3;fillColor=#808080;exitX=0;exitY=0.5;exitDx=0;exitDy=0;entryX=0.25;entryY=1;entryDx=0;entryDy=0;" edge="1" parent="1" source="121" target="13">
                    <mxGeometry width="50" height="50" relative="1" as="geometry">
                        <mxPoint x="-440" y="-4250" as="sourcePoint"/>
                        <mxPoint x="-490" y="-4350" as="targetPoint"/>
                        <Array as="points">
                            <mxPoint x="-490" y="-4250"/>
                        </Array>
                    </mxGeometry>
                </mxCell>
                <mxCell id="136" value="" style="endArrow=none;html=1;labelBackgroundColor=none;labelBorderColor=none;fontSize=15;fontColor=#000000;strokeColor=#000000;strokeWidth=3;fillColor=#808080;exitX=0;exitY=0.5;exitDx=0;exitDy=0;entryX=0.25;entryY=1;entryDx=0;entryDy=0;" edge="1" parent="1" source="88" target="91">
                    <mxGeometry width="50" height="50" relative="1" as="geometry">
                        <mxPoint x="-220" y="-4340" as="sourcePoint"/>
                        <mxPoint x="-170" y="-4390" as="targetPoint"/>
                        <Array as="points">
                            <mxPoint x="-250" y="-4460"/>
                        </Array>
                    </mxGeometry>
                </mxCell>
                <mxCell id="137" value="" style="endArrow=none;html=1;labelBackgroundColor=none;labelBorderColor=none;fontSize=15;fontColor=#000000;strokeColor=#000000;strokeWidth=3;fillColor=#808080;entryX=0;entryY=0.5;entryDx=0;entryDy=0;exitX=0.25;exitY=1;exitDx=0;exitDy=0;" edge="1" parent="1" source="91" target="68">
                    <mxGeometry width="50" height="50" relative="1" as="geometry">
                        <mxPoint x="-250" y="-4480" as="sourcePoint"/>
                        <mxPoint x="-170" y="-4390" as="targetPoint"/>
                        <Array as="points">
                            <mxPoint x="-250" y="-4390"/>
                        </Array>
                    </mxGeometry>
                </mxCell>
                <mxCell id="138" value="" style="endArrow=none;html=1;labelBackgroundColor=none;labelBorderColor=none;fontSize=15;fontColor=#000000;strokeColor=#000000;strokeWidth=3;fillColor=#808080;exitX=0.25;exitY=1;exitDx=0;exitDy=0;entryX=0;entryY=0.5;entryDx=0;entryDy=0;" edge="1" parent="1" source="91" target="70">
                    <mxGeometry width="50" height="50" relative="1" as="geometry">
                        <mxPoint x="-260" y="-4360" as="sourcePoint"/>
                        <mxPoint x="-210" y="-4410" as="targetPoint"/>
                        <Array as="points">
                            <mxPoint x="-250" y="-4320"/>
                        </Array>
                    </mxGeometry>
                </mxCell>
                <mxCell id="139" value="" style="endArrow=none;html=1;labelBackgroundColor=none;labelBorderColor=none;fontSize=15;fontColor=#000000;strokeColor=#000000;strokeWidth=3;fillColor=#808080;entryX=0;entryY=0.5;entryDx=0;entryDy=0;exitX=0.25;exitY=1;exitDx=0;exitDy=0;" edge="1" parent="1" source="91" target="69">
                    <mxGeometry width="50" height="50" relative="1" as="geometry">
                        <mxPoint x="-260" y="-4360" as="sourcePoint"/>
                        <mxPoint x="-210" y="-4410" as="targetPoint"/>
                        <Array as="points">
                            <mxPoint x="-250" y="-4250"/>
                        </Array>
                    </mxGeometry>
                </mxCell>
                <mxCell id="140" value="" style="endArrow=none;html=1;labelBackgroundColor=none;labelBorderColor=none;fontSize=15;fontColor=#000000;strokeColor=#000000;strokeWidth=3;fillColor=#808080;entryX=0;entryY=0.5;entryDx=0;entryDy=0;exitX=0.25;exitY=1;exitDx=0;exitDy=0;" edge="1" parent="1" source="92" target="106">
                    <mxGeometry width="50" height="50" relative="1" as="geometry">
                        <mxPoint y="-4310" as="sourcePoint"/>
                        <mxPoint x="50" y="-4360" as="targetPoint"/>
                        <Array as="points">
                            <mxPoint x="-10" y="-4040"/>
                        </Array>
                    </mxGeometry>
                </mxCell>
                <mxCell id="141" value="" style="endArrow=none;html=1;labelBackgroundColor=none;labelBorderColor=none;fontSize=15;fontColor=#000000;strokeColor=#000000;strokeWidth=3;fillColor=#808080;entryX=-0.009;entryY=0.577;entryDx=0;entryDy=0;entryPerimeter=0;exitX=0.25;exitY=1;exitDx=0;exitDy=0;" edge="1" parent="1" source="92" target="105">
                    <mxGeometry width="50" height="50" relative="1" as="geometry">
                        <mxPoint x="20" y="-4180" as="sourcePoint"/>
                        <mxPoint x="70" y="-4230" as="targetPoint"/>
                        <Array as="points">
                            <mxPoint x="-10" y="-4105"/>
                        </Array>
                    </mxGeometry>
                </mxCell>
                <mxCell id="142" value="" style="endArrow=none;html=1;labelBackgroundColor=none;labelBorderColor=none;fontSize=15;fontColor=#000000;strokeColor=#000000;strokeWidth=3;fillColor=#808080;entryX=0;entryY=0.5;entryDx=0;entryDy=0;exitX=0.25;exitY=1;exitDx=0;exitDy=0;" edge="1" parent="1" source="92" target="96">
                    <mxGeometry width="50" height="50" relative="1" as="geometry">
                        <mxPoint x="-10" y="-4160" as="sourcePoint"/>
                        <mxPoint x="40" y="-4210" as="targetPoint"/>
                        <Array as="points">
                            <mxPoint x="-10" y="-4180"/>
                        </Array>
                    </mxGeometry>
                </mxCell>
                <mxCell id="143" value="" style="endArrow=none;html=1;labelBackgroundColor=none;labelBorderColor=none;fontSize=15;fontColor=#000000;strokeColor=#000000;strokeWidth=3;fillColor=#808080;entryX=0;entryY=0.5;entryDx=0;entryDy=0;exitX=0.25;exitY=1;exitDx=0;exitDy=0;" edge="1" parent="1" source="92" target="109">
                    <mxGeometry width="50" height="50" relative="1" as="geometry">
                        <mxPoint x="-10" y="-4300" as="sourcePoint"/>
                        <mxPoint x="40" y="-4350" as="targetPoint"/>
                        <Array as="points">
                            <mxPoint x="-10" y="-4250"/>
                        </Array>
                    </mxGeometry>
                </mxCell>
                <mxCell id="144" value="" style="endArrow=none;html=1;labelBackgroundColor=none;labelBorderColor=none;fontSize=15;fontColor=#000000;strokeColor=#000000;strokeWidth=3;fillColor=#808080;entryX=0;entryY=0.5;entryDx=0;entryDy=0;exitX=0.25;exitY=1;exitDx=0;exitDy=0;" edge="1" parent="1" source="92" target="73">
                    <mxGeometry width="50" height="50" relative="1" as="geometry">
                        <mxPoint x="-10" y="-4300" as="sourcePoint"/>
                        <mxPoint x="40" y="-4350" as="targetPoint"/>
                        <Array as="points">
                            <mxPoint x="-10" y="-4320"/>
                        </Array>
                    </mxGeometry>
                </mxCell>
                <mxCell id="145" value="" style="endArrow=none;html=1;labelBackgroundColor=none;labelBorderColor=none;fontSize=15;fontColor=#000000;strokeColor=#000000;strokeWidth=3;fillColor=#808080;entryX=0;entryY=0.5;entryDx=0;entryDy=0;exitX=0.25;exitY=1;exitDx=0;exitDy=0;" edge="1" parent="1" source="92" target="72">
                    <mxGeometry width="50" height="50" relative="1" as="geometry">
                        <mxPoint x="-10" y="-4300" as="sourcePoint"/>
                        <mxPoint x="40" y="-4350" as="targetPoint"/>
                        <Array as="points">
                            <mxPoint x="-10" y="-4390"/>
                        </Array>
                    </mxGeometry>
                </mxCell>
                <mxCell id="146" value="" style="endArrow=none;html=1;labelBackgroundColor=none;labelBorderColor=none;fontSize=15;fontColor=#000000;strokeColor=#000000;strokeWidth=3;fillColor=#808080;entryX=0;entryY=0.5;entryDx=0;entryDy=0;exitX=0.25;exitY=1;exitDx=0;exitDy=0;" edge="1" parent="1" source="92" target="71">
                    <mxGeometry width="50" height="50" relative="1" as="geometry">
                        <mxPoint x="-10" y="-4300" as="sourcePoint"/>
                        <mxPoint x="40" y="-4350" as="targetPoint"/>
                        <Array as="points">
                            <mxPoint x="-10" y="-4460"/>
                        </Array>
                    </mxGeometry>
                </mxCell>
                <mxCell id="147" value="" style="endArrow=none;html=1;labelBackgroundColor=none;labelBorderColor=none;fontSize=15;fontColor=#000000;strokeColor=#000000;strokeWidth=3;fillColor=#808080;exitX=0.25;exitY=1;exitDx=0;exitDy=0;entryX=0;entryY=0.5;entryDx=0;entryDy=0;" edge="1" parent="1" source="10" target="104">
                    <mxGeometry width="50" height="50" relative="1" as="geometry">
                        <mxPoint x="250" y="-4310" as="sourcePoint"/>
                        <mxPoint x="300" y="-4360" as="targetPoint"/>
                        <Array as="points">
                            <mxPoint x="230" y="-4180"/>
                        </Array>
                    </mxGeometry>
                </mxCell>
                <mxCell id="148" value="" style="endArrow=none;html=1;labelBackgroundColor=none;labelBorderColor=none;fontSize=15;fontColor=#000000;strokeColor=#000000;strokeWidth=3;fillColor=#808080;exitX=0;exitY=0.5;exitDx=0;exitDy=0;entryX=0.25;entryY=1;entryDx=0;entryDy=0;" edge="1" parent="1" source="103" target="10">
                    <mxGeometry width="50" height="50" relative="1" as="geometry">
                        <mxPoint x="250" y="-4310" as="sourcePoint"/>
                        <mxPoint x="300" y="-4360" as="targetPoint"/>
                        <Array as="points">
                            <mxPoint x="230" y="-4250"/>
                        </Array>
                    </mxGeometry>
                </mxCell>
                <mxCell id="149" value="" style="endArrow=none;html=1;labelBackgroundColor=none;labelBorderColor=none;fontSize=15;fontColor=#000000;strokeColor=#000000;strokeWidth=3;fillColor=#808080;exitX=0;exitY=0.5;exitDx=0;exitDy=0;entryX=0.25;entryY=1;entryDx=0;entryDy=0;" edge="1" parent="1" source="102" target="10">
                    <mxGeometry width="50" height="50" relative="1" as="geometry">
                        <mxPoint x="250" y="-4310" as="sourcePoint"/>
                        <mxPoint x="300" y="-4360" as="targetPoint"/>
                        <Array as="points">
                            <mxPoint x="230" y="-4320"/>
                        </Array>
                    </mxGeometry>
                </mxCell>
                <mxCell id="150" value="" style="endArrow=none;html=1;labelBackgroundColor=none;labelBorderColor=none;fontSize=15;fontColor=#000000;strokeColor=#000000;strokeWidth=3;fillColor=#808080;entryX=0;entryY=0.5;entryDx=0;entryDy=0;" edge="1" parent="1" target="101">
                    <mxGeometry width="50" height="50" relative="1" as="geometry">
                        <mxPoint x="230" y="-4520" as="sourcePoint"/>
                        <mxPoint x="300" y="-4360" as="targetPoint"/>
                        <Array as="points">
                            <mxPoint x="230" y="-4390"/>
                        </Array>
                    </mxGeometry>
                </mxCell>
                <mxCell id="151" value="" style="endArrow=none;html=1;labelBackgroundColor=none;labelBorderColor=none;fontSize=15;fontColor=#000000;strokeColor=#000000;strokeWidth=3;fillColor=#808080;entryX=0;entryY=0.5;entryDx=0;entryDy=0;exitX=0.25;exitY=1;exitDx=0;exitDy=0;" edge="1" parent="1" source="10" target="123">
                    <mxGeometry width="50" height="50" relative="1" as="geometry">
                        <mxPoint x="260" y="-4370" as="sourcePoint"/>
                        <mxPoint x="310" y="-4420" as="targetPoint"/>
                        <Array as="points">
                            <mxPoint x="230" y="-4460"/>
                        </Array>
                    </mxGeometry>
                </mxCell>
                <mxCell id="152" value="" style="endArrow=none;html=1;labelBackgroundColor=none;labelBorderColor=none;fontSize=15;fontColor=#000000;strokeColor=#000000;strokeWidth=3;fillColor=#808080;entryX=0;entryY=0.5;entryDx=0;entryDy=0;exitX=0.25;exitY=1;exitDx=0;exitDy=0;" edge="1" parent="1" source="7" target="110">
                    <mxGeometry width="50" height="50" relative="1" as="geometry">
                        <mxPoint x="530" y="-4350" as="sourcePoint"/>
                        <mxPoint x="580" y="-4400" as="targetPoint"/>
                        <Array as="points">
                            <mxPoint x="470" y="-4460"/>
                        </Array>
                    </mxGeometry>
                </mxCell>
                <mxCell id="153" value="" style="endArrow=none;html=1;labelBackgroundColor=none;labelBorderColor=none;fontSize=15;fontColor=#000000;strokeColor=#000000;strokeWidth=3;fillColor=#808080;entryX=0;entryY=0.5;entryDx=0;entryDy=0;exitX=0.25;exitY=1;exitDx=0;exitDy=0;" edge="1" parent="1" source="7" target="75">
                    <mxGeometry width="50" height="50" relative="1" as="geometry">
                        <mxPoint x="530" y="-4350" as="sourcePoint"/>
                        <mxPoint x="580" y="-4400" as="targetPoint"/>
                        <Array as="points">
                            <mxPoint x="470" y="-4390"/>
                        </Array>
                    </mxGeometry>
                </mxCell>
                <mxCell id="154" value="" style="endArrow=none;html=1;labelBackgroundColor=none;labelBorderColor=none;fontSize=15;fontColor=#000000;strokeColor=#000000;strokeWidth=3;fillColor=#808080;exitX=0;exitY=0.5;exitDx=0;exitDy=0;entryX=0.25;entryY=1;entryDx=0;entryDy=0;" edge="1" parent="1" source="77" target="7">
                    <mxGeometry width="50" height="50" relative="1" as="geometry">
                        <mxPoint x="520" y="-4320" as="sourcePoint"/>
                        <mxPoint x="570" y="-4370" as="targetPoint"/>
                        <Array as="points">
                            <mxPoint x="470" y="-4250"/>
                        </Array>
                    </mxGeometry>
                </mxCell>
                <mxCell id="155" value="" style="endArrow=none;html=1;labelBackgroundColor=none;labelBorderColor=none;fontSize=15;fontColor=#000000;strokeColor=#000000;strokeWidth=3;fillColor=#808080;entryX=0;entryY=0.5;entryDx=0;entryDy=0;exitX=0.25;exitY=1;exitDx=0;exitDy=0;" edge="1" parent="1" source="7" target="76">
                    <mxGeometry width="50" height="50" relative="1" as="geometry">
                        <mxPoint x="430" y="-4280" as="sourcePoint"/>
                        <mxPoint x="480" y="-4330" as="targetPoint"/>
                        <Array as="points">
                            <mxPoint x="470" y="-4320"/>
                        </Array>
                    </mxGeometry>
                </mxCell>
                <mxCell id="156" value="" style="endArrow=none;html=1;labelBackgroundColor=none;labelBorderColor=none;fontSize=15;fontColor=#000000;strokeColor=#000000;strokeWidth=3;fillColor=#808080;exitX=0;exitY=0.5;exitDx=0;exitDy=0;" edge="1" parent="1" source="111">
                    <mxGeometry width="50" height="50" relative="1" as="geometry">
                        <mxPoint x="520" y="-4320" as="sourcePoint"/>
                        <mxPoint x="470" y="-4520" as="targetPoint"/>
                        <Array as="points">
                            <mxPoint x="470" y="-4180"/>
                        </Array>
                    </mxGeometry>
                </mxCell>
                <mxCell id="157" value="" style="endArrow=none;html=1;labelBackgroundColor=none;labelBorderColor=none;fontSize=15;fontColor=#000000;strokeColor=#000000;strokeWidth=3;fillColor=#808080;exitX=0;exitY=0.5;exitDx=0;exitDy=0;entryX=0.25;entryY=1;entryDx=0;entryDy=0;" edge="1" parent="1" source="108" target="7">
                    <mxGeometry width="50" height="50" relative="1" as="geometry">
                        <mxPoint x="510" y="-4060" as="sourcePoint"/>
                        <mxPoint x="410" y="-4020" as="targetPoint"/>
                        <Array as="points">
                            <mxPoint x="470" y="-3970"/>
                        </Array>
                    </mxGeometry>
                </mxCell>
                <mxCell id="158" value="" style="endArrow=none;html=1;labelBackgroundColor=none;labelBorderColor=none;fontSize=15;fontColor=#000000;strokeColor=#000000;strokeWidth=3;fillColor=#808080;exitX=0;exitY=0.5;exitDx=0;exitDy=0;entryX=0.25;entryY=1;entryDx=0;entryDy=0;" edge="1" parent="1" source="78" target="7">
                    <mxGeometry width="50" height="50" relative="1" as="geometry">
                        <mxPoint x="510" y="-4060" as="sourcePoint"/>
                        <mxPoint x="370" y="-4090" as="targetPoint"/>
                        <Array as="points">
                            <mxPoint x="470" y="-4040"/>
                        </Array>
                    </mxGeometry>
                </mxCell>
                <mxCell id="159" value="" style="endArrow=none;html=1;labelBackgroundColor=none;labelBorderColor=none;fontSize=15;fontColor=#000000;strokeColor=#000000;strokeWidth=3;fillColor=#808080;exitX=0;exitY=0.5;exitDx=0;exitDy=0;entryX=0.25;entryY=1;entryDx=0;entryDy=0;" edge="1" parent="1" source="107" target="7">
                    <mxGeometry width="50" height="50" relative="1" as="geometry">
                        <mxPoint x="510" y="-4060" as="sourcePoint"/>
                        <mxPoint x="560" y="-4110" as="targetPoint"/>
                        <Array as="points">
                            <mxPoint x="470" y="-4110"/>
                        </Array>
                    </mxGeometry>
                </mxCell>
                <mxCell id="160" value="" style="endArrow=none;html=1;labelBackgroundColor=none;labelBorderColor=none;fontSize=15;fontColor=#000000;strokeColor=#000000;strokeWidth=3;fillColor=#808080;entryX=0;entryY=0.5;entryDx=0;entryDy=0;exitX=0.25;exitY=1;exitDx=0;exitDy=0;" edge="1" parent="1" source="9" target="86">
                    <mxGeometry width="50" height="50" relative="1" as="geometry">
                        <mxPoint x="700" y="-4300" as="sourcePoint"/>
                        <mxPoint x="750" y="-4350" as="targetPoint"/>
                        <Array as="points">
                            <mxPoint x="710" y="-4180"/>
                            <mxPoint x="720" y="-4180"/>
                        </Array>
                    </mxGeometry>
                </mxCell>
                <mxCell id="161" value="" style="endArrow=none;html=1;labelBackgroundColor=none;labelBorderColor=none;fontSize=15;fontColor=#000000;strokeColor=#000000;strokeWidth=3;fillColor=#808080;entryX=0;entryY=0.5;entryDx=0;entryDy=0;exitX=0.25;exitY=1;exitDx=0;exitDy=0;" edge="1" parent="1" source="9" target="85">
                    <mxGeometry width="50" height="50" relative="1" as="geometry">
                        <mxPoint x="700" y="-4300" as="sourcePoint"/>
                        <mxPoint x="750" y="-4350" as="targetPoint"/>
                        <Array as="points">
                            <mxPoint x="710" y="-4250"/>
                        </Array>
                    </mxGeometry>
                </mxCell>
                <mxCell id="162" value="" style="endArrow=none;html=1;labelBackgroundColor=none;labelBorderColor=none;fontSize=15;fontColor=#000000;strokeColor=#000000;strokeWidth=3;fillColor=#808080;entryX=0;entryY=0.5;entryDx=0;entryDy=0;exitX=0.25;exitY=1;exitDx=0;exitDy=0;" edge="1" parent="1" source="9" target="115">
                    <mxGeometry width="50" height="50" relative="1" as="geometry">
                        <mxPoint x="700" y="-4300" as="sourcePoint"/>
                        <mxPoint x="750" y="-4350" as="targetPoint"/>
                        <Array as="points">
                            <mxPoint x="710" y="-4390"/>
                        </Array>
                    </mxGeometry>
                </mxCell>
                <mxCell id="163" value="" style="endArrow=none;html=1;labelBackgroundColor=none;labelBorderColor=none;fontSize=15;fontColor=#000000;strokeColor=#000000;strokeWidth=3;fillColor=#808080;entryX=0;entryY=0.5;entryDx=0;entryDy=0;exitX=0.25;exitY=1;exitDx=0;exitDy=0;" edge="1" parent="1" source="9" target="113">
                    <mxGeometry width="50" height="50" relative="1" as="geometry">
                        <mxPoint x="700" y="-4300" as="sourcePoint"/>
                        <mxPoint x="750" y="-4350" as="targetPoint"/>
                        <Array as="points">
                            <mxPoint x="710" y="-4460"/>
                        </Array>
                    </mxGeometry>
                </mxCell>
                <mxCell id="164" value="" style="endArrow=none;html=1;labelBackgroundColor=none;labelBorderColor=none;fontSize=15;fontColor=#000000;strokeColor=#000000;strokeWidth=3;fillColor=#808080;entryX=0;entryY=0.5;entryDx=0;entryDy=0;exitX=0.25;exitY=1;exitDx=0;exitDy=0;" edge="1" parent="1" source="9" target="84">
                    <mxGeometry width="50" height="50" relative="1" as="geometry">
                        <mxPoint x="670" y="-4290" as="sourcePoint"/>
                        <mxPoint x="720" y="-4340" as="targetPoint"/>
                        <Array as="points">
                            <mxPoint x="710" y="-4320"/>
                        </Array>
                    </mxGeometry>
                </mxCell>
            </root>
        </mxGraphModel>
    </diagram>
</mxfile>